<svg width="121" height="44" viewBox="0 0 121 44" fill="none" xmlns="http://www.w3.org/2000/svg">
<path fill-rule="evenodd" clip-rule="evenodd" d="M60.7545 1.89193L1.75725 31.1639L0.754678 31.1511L1.76091 31.1639L22.44 42.2762L22.4304 43.033L0 31.1415L60.7785 0L121 32.683L119.235 32.6605L60.7545 1.89193ZM90.1997 16.4868L60.7705 0.630645L31.0722 15.7334L60.7657 1.00903L90.1997 16.4868Z" fill="white"/>
<path fill-rule="evenodd" clip-rule="evenodd" d="M55.048 9.9054L49.149 9.83025L48.951 25.4576L54.1677 25.5241C56.002 25.5474 57.4234 25.1388 58.4321 24.298C59.4556 23.4427 59.976 22.3382 59.9931 20.9844C60.0071 19.8808 59.7464 19.0238 59.2111 18.4136C58.6905 17.8035 57.7929 17.4095 56.5183 17.2313L56.5199 17.0989C57.3882 16.9186 58.0685 16.5078 58.5609 15.8666C59.0536 15.2105 59.3063 14.3749 59.3192 13.3595C59.3321 12.3442 58.9829 11.5229 58.2717 10.8957C57.5753 10.254 56.5008 9.92391 55.048 9.9054ZM52.5936 22.9211L52.6475 18.6611L53.6821 18.6743C54.5332 18.6851 55.1544 18.8844 55.5458 19.272C55.9371 19.6597 56.1286 20.1846 56.1202 20.8467C56.1118 21.5089 55.9585 22.0294 55.6601 22.4083C55.362 22.7724 54.802 22.9493 53.9803 22.9388L52.5936 22.9211ZM52.6802 16.0786L52.7267 12.4146L53.9153 12.4297C54.5463 12.4378 54.9846 12.5905 55.2304 12.888C55.4908 13.1857 55.6171 13.6435 55.6092 14.2615C55.5936 15.4976 54.9694 16.1078 53.7368 16.0921L52.6802 16.0786Z" fill="white"/>
<path d="M60.8904 24.7718C60.8823 25.4131 61.1704 25.7374 61.7549 25.7449C62.0849 25.7491 62.3301 25.6694 62.4903 25.506C62.6507 25.3356 62.7324 25.1263 62.7355 24.8781C62.7437 24.23 62.4556 23.9022 61.8712 23.8947C61.5411 23.8905 61.2959 23.9736 61.1356 24.144C60.9753 24.3143 60.8935 24.5236 60.8904 24.7718Z" fill="white"/>
<path d="M68.3346 22.9671L68.4979 10.0767L64.888 10.0308L64.69 25.6581L73.1644 25.7661L73.5953 23.0341L68.3346 22.9671Z" fill="white"/>
<path fill-rule="evenodd" clip-rule="evenodd" d="M25.3133 29.0066L23.3813 28.982L23.3134 34.3399L24.5511 34.3557L24.5749 32.4713L24.8995 32.4754C25.312 32.4807 25.6649 32.4297 25.9581 32.3224C26.2564 32.2102 26.4797 32.0591 26.6281 31.8692C26.9093 31.5196 27.0528 31.1102 27.0588 30.641C27.0645 30.1869 26.9561 29.8121 26.7334 29.5166C26.4759 29.1854 26.0025 29.0153 25.3133 29.0066ZM24.5863 31.5783L24.6082 29.8453L25.0157 29.8505C25.3075 29.8542 25.5003 29.9298 25.5941 30.0774C25.6878 30.2249 25.7328 30.4475 25.729 30.7452C25.7253 31.0378 25.6647 31.2515 25.5473 31.3862C25.4349 31.521 25.2504 31.5868 24.9938 31.5835L24.5863 31.5783Z" fill="white"/>
<path fill-rule="evenodd" clip-rule="evenodd" d="M32.3074 31.6767C32.3299 29.8957 31.667 28.9967 30.3187 28.9795C29.5992 28.9703 29.0552 29.2157 28.6865 29.7156C28.3179 30.2155 28.1278 30.9195 28.1163 31.8277C28.0938 33.6035 28.7568 34.5001 30.1051 34.5173C30.8246 34.5264 31.3686 34.2836 31.7372 33.7887C32.1058 33.2888 32.2959 32.5848 32.3074 31.6767ZM29.5993 30.3555C29.6934 30.0791 29.8813 29.9428 30.163 29.9463C30.4448 29.9499 30.6523 30.0485 30.7858 30.2419C30.9241 30.4455 30.9884 30.9307 30.9787 31.6976C30.9698 32.3938 30.9184 32.8776 30.8244 33.1489C30.7304 33.4202 30.5224 33.5537 30.2004 33.5496C29.8834 33.5456 29.6763 33.4093 29.5791 33.1406C29.4819 32.8719 29.4374 32.4096 29.4457 31.7538C29.4541 31.0928 29.5053 30.6267 29.5993 30.3555Z" fill="white"/>
<path fill-rule="evenodd" clip-rule="evenodd" d="M35.7494 29.1395L33.7496 29.114L33.6817 34.472L34.8967 34.4875L34.9221 32.482L35.2617 32.4864L36.1117 34.503L37.44 34.5199L36.3069 32.2045C36.9646 31.9252 37.2981 31.4173 37.3075 30.6807C37.3203 29.6667 36.801 29.1529 35.7494 29.1395ZM34.9489 31.559L34.9682 30.0378L35.3078 30.0422C35.5593 30.0454 35.7347 30.1082 35.8337 30.2305C35.9379 30.353 35.9885 30.5302 35.9855 30.7623C35.9787 31.3021 35.7514 31.5692 35.3036 31.5635L34.9489 31.559Z" fill="white"/>
<path d="M40.709 34.5615L40.7651 30.1344L41.8518 30.1482L41.9844 29.219L38.3846 29.1731L38.252 30.1024L39.5274 30.1186L39.4713 34.5458L40.709 34.5615Z" fill="white"/>
<path d="M46.4273 29.2756L43.1671 29.234L43.0992 34.592L46.2613 34.6323L46.4091 33.6956L44.3488 33.6693L44.3657 32.3374L45.9429 32.3575L46.0829 31.4359L44.3774 31.4142L44.3928 30.1958L46.2795 30.2198L46.4273 29.2756Z" fill="white"/>
<path d="M50.9419 30.6728C50.8584 29.718 50.3034 29.2341 49.2771 29.221C48.7589 29.2144 48.3218 29.3577 47.9658 29.6509C47.615 29.9391 47.4367 30.3102 47.4309 30.7643C47.4269 31.0821 47.5015 31.348 47.6548 31.5619C47.7339 31.6688 47.8083 31.7606 47.8777 31.8372C47.9523 31.9088 48.0844 32.0064 48.2741 32.1299C48.4688 32.2535 48.6637 32.3569 48.8589 32.4401C49.079 32.5438 49.2887 32.6701 49.4881 32.819C49.6576 32.9473 49.7412 33.1022 49.7389 33.2839C49.7368 33.4504 49.6698 33.5757 49.5379 33.6598C49.411 33.7439 49.2671 33.785 49.1061 33.7829C48.7036 33.7778 48.2575 33.6334 47.768 33.3496L47.3123 34.1688C47.5667 34.3487 47.8542 34.4911 48.1749 34.5961C48.5006 34.7012 48.8145 34.7556 49.1163 34.7595C49.6698 34.7665 50.1245 34.6159 50.4807 34.3076C50.8369 33.9942 51.0176 33.6332 51.0228 33.2245C51.028 32.8108 50.9063 32.4863 50.6577 32.2511C50.5234 32.1283 50.3989 32.0283 50.2841 31.9511C50.1694 31.874 50.0495 31.8018 49.9245 31.7346C49.8047 31.6624 49.6598 31.5799 49.4899 31.4869C49.32 31.3939 49.2051 31.3293 49.1451 31.2932C49.0853 31.2521 49.003 31.1905 48.8984 31.1084C48.7988 31.0264 48.7294 30.9448 48.6902 30.8636C48.656 30.7824 48.6396 30.6838 48.6411 30.5678C48.6426 30.4467 48.6867 30.3438 48.7733 30.2591C48.865 30.1745 48.9862 30.1332 49.1372 30.1351C49.5045 30.1398 49.7229 30.3747 49.7925 30.8398L50.9419 30.6728Z" fill="white"/>
<path d="M55.5573 30.5878C55.6488 30.5082 55.7701 30.4694 55.921 30.4713C56.238 30.4753 56.4243 30.6619 56.4801 31.0309L57.4632 30.877C57.4181 30.4677 57.271 30.1655 57.0218 29.9706C56.7777 29.7758 56.4142 29.6753 55.9312 29.6691C55.4482 29.663 55.0567 29.7841 54.7567 30.0326C54.4617 30.2761 54.3118 30.5896 54.307 30.973C54.3033 31.2656 54.3683 31.496 54.502 31.6642C54.6408 31.8325 54.8302 31.9712 55.0704 32.0802L55.0699 32.118C54.7869 32.2154 54.5508 32.3789 54.3617 32.6086C54.1777 32.8333 54.0837 33.1071 54.0796 33.43C54.0736 33.8992 54.2201 34.2518 54.5191 34.4877C54.8181 34.7186 55.204 34.837 55.677 34.843C56.1499 34.8491 56.5265 34.71 56.8069 34.426L56.8371 34.4264C56.9592 34.7156 57.214 34.8626 57.6014 34.8676C57.8982 34.8713 58.2013 34.7793 58.5106 34.5915L58.3068 33.9985C58.1653 34.0472 58.0342 34.0708 57.9134 34.0692C57.7927 34.0677 57.6925 34.0336 57.6128 33.967C57.5382 33.9004 57.5018 33.794 57.5036 33.6477L57.5178 32.5277L58.0773 32.4515L58.1844 31.749L57.2856 31.7905L56.5762 31.7815L56.5516 33.7264C56.4032 33.9163 56.1958 34.0095 55.9291 34.0061C55.748 34.0038 55.5953 33.9413 55.471 33.8186C55.3518 33.696 55.2935 33.5338 55.2961 33.332C55.2987 33.1251 55.3662 32.9569 55.4987 32.8274C55.6312 32.6979 55.7983 32.6168 55.9999 32.584L56.257 32.5495L56.3725 31.7789C56.0218 31.6533 55.7743 31.5291 55.6299 31.4061C55.4856 31.2781 55.4145 31.1309 55.4166 30.9644C55.4188 30.7929 55.4657 30.6673 55.5573 30.5878Z" fill="white"/>
<path d="M65.0676 29.513L61.9206 29.4729L61.8527 34.8309L63.0903 34.8467L63.1187 32.6066L64.5526 32.6249L64.6926 31.7032L63.1304 31.6833L63.1463 30.4271L64.9274 30.4498L65.0676 29.513Z" fill="white"/>
<path d="M69.521 29.5698L66.2608 29.5282L66.1929 34.8862L69.355 34.9265L69.5028 33.9898L67.4425 33.9635L67.4594 32.6316L69.0367 32.6517L69.1767 31.7301L67.4711 31.7084L67.4865 30.49L69.3732 30.514L69.521 29.5698Z" fill="white"/>
<path d="M74.4828 34.9918L74.5507 29.6338L73.3205 29.6182L73.2912 31.9339L73.4524 32.9123L73.4069 32.9345L73.0715 31.9992L71.9923 29.6012L70.8075 29.5861L70.7396 34.9441L71.9773 34.9599L72.0061 32.682L71.8369 31.7413L71.8899 31.7268L72.1888 32.5632L73.313 34.9769L74.4828 34.9918Z" fill="white"/>
<path d="M79.0412 28.9947L78.0569 28.0436L77.5437 28.0371L76.5357 28.9628L76.9453 29.3994L77.7908 28.7971L78.6207 29.4208L79.0412 28.9947Z" fill="white"/>
<path d="M79.4324 29.696L76.1722 29.6545L76.1043 35.0124L79.2664 35.0527L79.4141 34.1161L77.3539 34.0898L77.3707 32.7579L78.948 32.778L79.088 31.8564L77.3824 31.8346L77.3979 30.6162L79.2846 30.6403L79.4324 29.696Z" fill="white"/>
<path d="M82.7263 35.0968L82.7824 30.6697L83.8691 30.6835L84.0017 29.7542L80.4018 29.7084L80.2693 30.6377L81.5447 30.6539L81.4886 35.081L82.7263 35.0968Z" fill="white"/>
<path fill-rule="evenodd" clip-rule="evenodd" d="M87.1843 29.7948L85.1844 29.7693L85.1165 35.1273L86.3315 35.1427L86.3569 33.1373L86.6965 33.1416L87.5466 35.1582L88.8748 35.1751L87.7417 32.8597C88.3994 32.5805 88.733 32.0726 88.7423 31.336C88.7551 30.3219 88.2358 29.8082 87.1843 29.7948ZM86.3837 32.2142L86.403 30.6931L86.7426 30.6974C86.9942 30.7006 87.1695 30.7634 87.2686 30.8858C87.3727 31.0082 87.4233 31.1855 87.4203 31.4175C87.4135 31.9574 87.1862 32.2244 86.7384 32.2187L86.3837 32.2142Z" fill="white"/>
<path d="M93.3966 29.8739L90.1364 29.8324L90.0685 35.1903L93.2306 35.2306L93.3783 34.294L91.318 34.2677L91.3349 32.9358L92.9122 32.9559L93.0522 32.0343L91.3466 32.0125L91.362 30.7941L93.2487 30.8182L93.3966 29.8739Z" fill="white"/>
<path d="M97.9111 31.2711C97.8276 30.3164 97.2727 29.8325 96.2463 29.8194C95.7281 29.8128 95.291 29.9561 94.9351 30.2493C94.5842 30.5375 94.4059 30.9086 94.4002 31.3627C94.3961 31.6805 94.4708 31.9464 94.624 32.1602C94.7032 32.2672 94.7775 32.359 94.847 32.4356C94.9216 32.5072 95.0537 32.6047 95.2433 32.7282C95.438 32.8518 95.633 32.9552 95.8282 33.0384C96.0482 33.1422 96.258 33.2685 96.4574 33.4173C96.6268 33.5457 96.7104 33.7006 96.7081 33.8822C96.706 34.0487 96.639 34.174 96.5071 34.2581C96.3802 34.3423 96.2363 34.3834 96.0753 34.3813C95.6728 34.3762 95.2268 34.2317 94.7373 33.948L94.2815 34.7672C94.5359 34.947 94.8234 35.0895 95.1442 35.1945C95.4699 35.2995 95.7837 35.354 96.0856 35.3578C96.639 35.3649 97.0938 35.2142 97.45 34.9059C97.8062 34.5926 97.9869 34.2316 97.992 33.8229C97.9973 33.4092 97.8756 33.0847 97.627 32.8494C97.4927 32.7266 97.3681 32.6266 97.2534 32.5495C97.1386 32.4723 97.0188 32.4002 96.8938 32.333C96.774 32.2608 96.6291 32.1782 96.4592 32.0852C96.2893 31.9922 96.1743 31.9277 96.1144 31.8916C96.0545 31.8505 95.9723 31.7889 95.8677 31.7068C95.7681 31.6248 95.6986 31.5432 95.6594 31.462C95.6252 31.3808 95.6089 31.2822 95.6103 31.1661C95.6119 31.0451 95.656 30.9422 95.7426 30.8575C95.8342 30.7729 95.9555 30.7315 96.1064 30.7335C96.4737 30.7381 96.6921 30.973 96.7617 31.4382L97.9111 31.2711Z" fill="white"/>
<path d="M38.491 37.4095L39.7043 37.4249L39.6615 37.7032L38.8014 37.6922L38.7921 38.4268L39.5312 38.4362L39.4885 38.7112L38.7886 38.7022L38.7759 39.709L38.4619 39.705L38.491 37.4095Z" fill="white"/>
<path fill-rule="evenodd" clip-rule="evenodd" d="M41.9112 37.4137C42.4606 37.4207 42.7305 37.8035 42.7209 38.5621C42.7159 38.9534 42.6368 39.2564 42.4837 39.4709C42.3305 39.6854 42.1056 39.7908 41.8091 39.787C41.2597 39.78 40.9898 39.3972 40.9995 38.6386C41.0044 38.2472 41.0835 37.9443 41.2367 37.7298C41.3898 37.5153 41.6147 37.4099 41.9112 37.4137ZM42.2455 37.8706C42.2069 37.8198 42.1529 37.7786 42.0836 37.7471C42.0142 37.7135 41.9294 37.696 41.8291 37.6947C41.731 37.6935 41.6467 37.7175 41.5763 37.7669C41.5081 37.8142 41.4571 37.8846 41.4232 37.9782C41.3667 38.1371 41.3367 38.351 41.3333 38.6199C41.3289 38.9697 41.3749 39.2064 41.4715 39.3301C41.5594 39.4449 41.6961 39.5035 41.8814 39.5059C41.9686 39.507 42.0429 39.4904 42.1044 39.4562C42.1681 39.4199 42.2167 39.3757 42.25 39.3236C42.2856 39.2694 42.3138 39.1987 42.3345 39.1115C42.3667 38.9763 42.3839 38.8268 42.386 38.6628C42.388 38.4988 42.3863 38.3785 42.3807 38.3019C42.3752 38.2232 42.3609 38.1443 42.3379 38.0652C42.3172 37.9841 42.2864 37.9192 42.2455 37.8706Z" fill="white"/>
<path d="M45.7499 37.5019L45.7272 39.2957L45.7472 39.7781L45.4917 39.811L45.4614 39.6203L45.4483 39.6202C45.3048 39.7605 45.1327 39.8294 44.9322 39.8268C44.7316 39.8242 44.5698 39.7708 44.4469 39.6665C44.3239 39.5621 44.2637 39.4061 44.2663 39.1984L44.2881 37.4833L44.602 37.4873L44.581 39.1467C44.5793 39.2844 44.6194 39.3855 44.7015 39.45C44.7857 39.5122 44.8889 39.5442 45.011 39.5457C45.1897 39.548 45.3236 39.4819 45.4125 39.3475L45.4359 37.4979L45.7499 37.5019Z" fill="white"/>
<path fill-rule="evenodd" clip-rule="evenodd" d="M47.4507 37.5236L48.1897 37.533C48.423 37.536 48.5825 37.6014 48.6681 37.7294C48.7451 37.8462 48.7825 37.9877 48.7804 38.1539C48.7783 38.32 48.7329 38.4616 48.6442 38.5785C48.5555 38.6933 48.4368 38.7749 48.2879 38.8233L48.8997 39.838L48.5302 39.8333L47.9798 38.8718L47.7476 38.8689L47.7355 39.8232L47.4216 39.8192L47.4507 37.5236ZM47.7615 37.7703L47.7509 38.6065L48.0027 38.6097C48.1466 38.6116 48.2572 38.5758 48.3345 38.5024C48.4117 38.4269 48.4512 38.3224 48.4529 38.1891C48.4546 38.0535 48.4232 37.9514 48.3587 37.8828C48.2963 37.8121 48.191 37.7757 48.0428 37.7739L47.7615 37.7703Z" fill="white"/>
<path d="M51.7907 37.5789L51.7616 39.8744L51.4313 39.8702L50.6923 38.3062L50.5882 38.0031L50.5717 38.0127L50.623 38.3512L50.6039 39.8597L50.29 39.8557L50.319 37.5601L50.6526 37.5644L51.3879 39.1678L51.4951 39.4807L51.5116 39.4711L51.4576 39.0834L51.4767 37.5749L51.7907 37.5789Z" fill="white"/>
<path d="M53.8048 37.6046L53.7757 39.9001L53.4617 39.8961L53.4908 37.6006L53.8048 37.6046Z" fill="white"/>
<path d="M56.1113 37.9095L56.0857 39.9295L55.7718 39.9255L55.7973 37.9054L55.2087 37.898L55.2416 37.6229L56.6838 37.6412L56.6509 37.9163L56.1113 37.9095Z" fill="white"/>
<path d="M59.5233 37.6774L59.5006 39.4712L59.5207 39.9536L59.2651 39.9864L59.2348 39.7958L59.2218 39.7957C59.0783 39.9359 58.9062 40.0048 58.7056 40.0023C58.5051 39.9997 58.3433 39.9463 58.2203 39.8419C58.0973 39.7376 58.0372 39.5816 58.0398 39.3739L58.0615 37.6588L58.3755 37.6628L58.3545 39.3221C58.3527 39.4599 58.3929 39.561 58.4749 39.6254C58.5592 39.6877 58.6623 39.7196 58.7844 39.7212C58.9632 39.7235 59.097 39.6574 59.186 39.523L59.2094 37.6734L59.5233 37.6774Z" fill="white"/>
<path fill-rule="evenodd" clip-rule="evenodd" d="M61.2241 37.6991L61.9632 37.7085C62.1965 37.7115 62.3559 37.7769 62.4415 37.9048C62.5185 38.0217 62.556 38.1632 62.5539 38.3293C62.5518 38.4955 62.5064 38.6371 62.4177 38.754C62.329 38.8688 62.2102 38.9503 62.0613 38.9987L62.6732 40.0135L62.3037 40.0087L61.7533 39.0473L61.5211 39.0443L61.509 39.9986L61.195 39.9946L61.2241 37.6991ZM61.535 37.9457L61.5244 38.782L61.7762 38.7852C61.9201 38.787 62.0307 38.7513 62.1079 38.6779C62.1852 38.6024 62.2247 38.4979 62.2264 38.3645C62.2281 38.229 62.1967 38.1269 62.1321 38.0583C62.0698 37.9875 61.9645 37.9512 61.8162 37.9493L61.535 37.9457Z" fill="white"/>
<path d="M64.0925 37.7356L65.3319 37.7514L65.2891 38.0329L64.4029 38.0216L64.3939 38.7267L65.1755 38.7367L65.1328 39.0116L64.3905 39.0022L64.3809 39.7531L65.3228 39.7651L65.28 40.0467L64.0634 40.0312L64.0925 37.7356Z" fill="white"/>
<path d="M69.2396 39.1459L69.2365 39.3919L68.4516 39.3819L68.4547 39.1359L69.2396 39.1459Z" fill="white"/>
<path fill-rule="evenodd" clip-rule="evenodd" d="M72.5928 37.8439L73.3449 37.8535C73.5848 37.8565 73.7497 37.9188 73.8397 38.0402C73.932 38.1594 73.9769 38.3185 73.9743 38.5175C73.9719 38.7121 73.9174 38.8819 73.8109 39.0271C73.7532 39.1072 73.6662 39.1706 73.5501 39.2173C73.434 39.2617 73.2941 39.2829 73.1306 39.2808L72.8886 39.2777L72.8776 40.1435L72.5637 40.1395L72.5928 37.8439ZM72.9037 38.0873L72.8919 39.0154L73.219 39.0195C73.4958 39.023 73.6362 38.8761 73.6399 38.5788C73.642 38.417 73.6141 38.2964 73.5562 38.217C73.5005 38.1354 73.3822 38.0934 73.2013 38.0911L72.9037 38.0873Z" fill="white"/>
<path fill-rule="evenodd" clip-rule="evenodd" d="M76.2237 37.8508C76.7731 37.8578 77.043 38.2406 77.0334 38.9992C77.0285 39.3906 76.9494 39.6935 76.7962 39.908C76.643 40.1225 76.4182 40.2279 76.1217 40.2241C75.5723 40.2171 75.3024 39.8343 75.312 39.0757C75.317 38.6844 75.396 38.3814 75.5492 38.1669C75.7024 37.9524 75.9272 37.847 76.2237 37.8508ZM76.5581 38.3077C76.5195 38.2569 76.4655 38.2158 76.3961 38.1843C76.3268 38.1506 76.242 38.1331 76.1417 38.1318C76.0435 38.1306 75.9593 38.1547 75.8889 38.204C75.8207 38.2513 75.7697 38.3217 75.7358 38.4153C75.6792 38.5742 75.6493 38.7881 75.6459 39.057C75.6414 39.4068 75.6875 39.6435 75.784 39.7672C75.872 39.882 76.0086 39.9406 76.1939 39.943C76.2812 39.9441 76.3555 39.9276 76.417 39.8934C76.4807 39.857 76.5292 39.8128 76.5626 39.7607C76.5982 39.7065 76.6263 39.6358 76.647 39.5486C76.6793 39.4135 76.6964 39.2639 76.6985 39.0999C76.7006 38.936 76.6988 38.8157 76.6933 38.7391C76.6877 38.6603 76.6735 38.5814 76.6505 38.5024C76.6297 38.4212 76.5989 38.3563 76.5581 38.3077Z" fill="white"/>
<path d="M78.4363 38.4956C78.4386 38.3207 78.5058 38.1751 78.6381 38.0587C78.7704 37.9423 78.938 37.8854 79.1407 37.888C79.3435 37.8905 79.4965 37.9428 79.5999 38.0447C79.7033 38.1466 79.7615 38.2851 79.7745 38.4602L79.4406 38.4887C79.4353 38.3881 79.4025 38.31 79.3421 38.2546C79.284 38.1992 79.2026 38.1708 79.0979 38.1695C78.9954 38.1682 78.9144 38.1923 78.8549 38.2418C78.7954 38.2914 78.7652 38.3555 78.7642 38.4342C78.7629 38.5391 78.7956 38.6248 78.8623 38.6913C78.9291 38.7577 79.0437 38.8335 79.2062 38.9187C79.3491 38.9948 79.4465 39.0508 79.4984 39.0864C79.5525 39.1199 79.6065 39.1621 79.6603 39.2131C79.7638 39.3084 79.8144 39.4457 79.8121 39.625C79.8099 39.8043 79.7403 39.9565 79.6035 40.0815C79.4668 40.2044 79.284 40.2644 79.0551 40.2615C78.8261 40.2586 78.6101 40.1848 78.407 40.0401L78.5441 39.7991C78.7454 39.9175 78.9354 39.9779 79.1142 39.9802C79.221 39.9816 79.3086 39.9564 79.3768 39.9048C79.4451 39.851 79.4799 39.7738 79.4812 39.6733C79.4825 39.5705 79.4486 39.4892 79.3796 39.4293C79.3127 39.3694 79.2273 39.3147 79.1233 39.2653C79.0214 39.2159 78.9586 39.1856 78.9347 39.1743C78.9109 39.1609 78.8708 39.1385 78.8146 39.1072C78.7583 39.0737 78.7172 39.0458 78.6913 39.0236C78.6654 39.0014 78.632 38.9704 78.5911 38.9305C78.5524 38.8885 78.5245 38.8488 78.5076 38.8114C78.4587 38.708 78.435 38.6027 78.4363 38.4956Z" fill="white"/>
<path d="M81.3193 37.9551L82.5587 37.9709L82.5159 38.2524L81.6297 38.2411L81.6207 38.9462L82.4023 38.9561L82.3596 39.2311L81.6172 39.2216L81.6077 39.9726L82.5496 39.9846L82.5067 40.2661L81.2902 40.2506L81.3193 37.9551Z" fill="white"/>
<path d="M22.4304 43.033L98.3384 44L121 32.683L119.244 32.6606L98.348 43.2432L22.44 42.2762L22.4304 43.033Z" fill="white"/>
</svg>
